<?xml version="1.0" encoding="UTF-8"?>
<svg id="Layer_1" xmlns="http://www.w3.org/2000/svg" viewBox="0 0 16 16">
  <defs>
    <style>
      .cls-1 {
        fill: #27b06e;
      }
    </style>
  </defs>
  <path class="cls-1" d="M8.27,4.19c-1.83,0-2.99,1.38-2.99,3.8s1.11,3.83,2.99,3.83c1.66,0,2.59-.87,2.63-2.22h-2.51v-2.15h5.33v1.63c0,3.32-2.28,5.31-5.46,5.31-3.56,0-5.96-2.44-5.96-6.37S4.89,1.61,8.2,1.61c2.87,0,5.08,1.74,5.4,4.23h-2.97c-.28-1.04-1.13-1.66-2.35-1.65Z"/>
  <path class="cls-1" d="M13.7,16H2.3c-1.27,0-2.3-1.03-2.3-2.3V2.3C0,1.03,1.03,0,2.3,0h11.4c1.27,0,2.3,1.03,2.3,2.3v11.4c0,1.27-1.03,2.3-2.3,2.3ZM2.3,1.21c-.6,0-1.09.49-1.09,1.09v11.4c0,.6.49,1.09,1.09,1.09h11.4c.6,0,1.09-.49,1.09-1.09V2.3c0-.6-.49-1.09-1.09-1.09H2.3Z"/>
</svg>